# xmcd CD database file
#
# Track frame offsets:
#	150
#	12417
#	24609
#	46318
#	62299
#	76268
#	84146
#	89487
#	101148
#	112680
#	127537
#	146404
#	156081
#	168900
#	179104
#	187314
#
# Disc length: 2723 seconds
#
# Revision: 0
# Processed by: cddbd v1.5.2PL0 Copyright (c) Steve Scherf et al.
# Submitted via: CDex 1.51
#
DISCID=c10aa110
DTITLE=Tadeusz S³awek and Bogdan Mizerski - Bez warunków wstêpnych
DYEAR=2012
DGENRE=Jazz
TTITLE0=Punkt I
TTITLE1=Punkt II
TTITLE2=Punkt III
TTITLE3=Punkt IV
TTITLE4=Punkt V
TTITLE5=Punkt VI
TTITLE6=Punkt VII
TTITLE7=Punkt VIII
TTITLE8=Punkt IX
TTITLE9=Punkt X
TTITLE10=Punkt XI
TTITLE11=Punkt XII
TTITLE12=Punkt XIII
TTITLE13=Punkt XIV
TTITLE14=Punkt XV
TTITLE15=Punkt XVI
EXTD=YEAR: 2012
EXTT0=
EXTT1=
EXTT2=
EXTT3=
EXTT4=
EXTT5=
EXTT6=
EXTT7=
EXTT8=
EXTT9=
EXTT10=
EXTT11=
EXTT12=
EXTT13=
EXTT14=
EXTT15=
PLAYORDER=
